# xmcd CD database file
#
# Track frame offsets:
#	150
#	18717
#	36634
#	59208
#	79760
#	103043
#	125709
#	145525
#	171668
#	202460
#	237136
#	267103
#	297366
#
# Disc length: 4399 seconds
#
# Revision: 0
# Processed by: cddbd v1.5.2PL0 Copyright (c) Steve Scherf et al.
# Submitted via: CDex 1.51
#
DISCID=d5112d0d
DTITLE=Horace Silver Quintet With Art Farmer - Complete Recordings CD 1
DYEAR=1954
DGENRE=Jazz
TTITLE0=Wisteria
TTITLE1=Soft Shoe
TTITLE2=Confab In Tempo
TTITLE3=I'll Take Romance
TTITLE4=A Night At Tony's
TTITLE5=Blue Concept
TTITLE6=Deltitnu
TTITLE7=Stupendous Lee
TTITLE8=Funk In Deep Freeze
TTITLE9=Wham And They're Off
TTITLE10=Fin De L'Affaire
TTITLE11=Strartin' From Scratch
TTITLE12=Stella-Wise
EXTD=YEAR: 1954
EXTT0=
EXTT1=
EXTT2=
EXTT3=
EXTT4=
EXTT5=
EXTT6=
EXTT7=
EXTT8=
EXTT9=
EXTT10=
EXTT11=
EXTT12=
PLAYORDER=
